# Blender 4.2.0
# www.blender.org
mtllib bomb.mtl
o Cylinder
v 0.000000 1.931504 -1.558015
v 1.218105 1.931504 -0.971407
v 1.518952 1.931504 0.346691
v 0.675997 1.931504 1.403723
v -0.675997 1.931504 1.403723
v -1.518952 1.931504 0.346691
v -1.218105 1.931504 -0.971407
v 0.000000 1.276867 -1.000000
v 1.218105 1.280122 -0.971407
v 1.518952 1.280122 0.346691
v 0.675997 1.280122 1.403723
v -0.675997 1.280122 1.403723
v -1.518952 1.280122 0.346691
v -1.218105 1.280122 -0.971407
v 0.781831 1.934759 -0.623490
v 0.000000 1.934759 -1.000000
v 0.974928 1.934759 0.222521
v 0.433884 1.934759 0.900969
v -0.433884 1.934759 0.900969
v -0.974928 1.934759 0.222521
v -0.781831 1.934759 -0.623490
v -0.781831 1.276867 -0.623490
v 0.000000 1.280122 -1.558015
v -0.974928 1.276867 0.222521
v -0.433884 1.276867 0.900969
v 0.433884 1.276867 0.900969
v 0.974928 1.276867 0.222521
v 0.781831 1.276867 -0.623490
v 0.874839 -0.788284 -0.697661
v 1.090907 -0.788284 0.248992
v 0.485499 -0.788284 1.008149
v -0.485499 -0.788284 1.008149
v -1.090907 -0.788284 0.248992
v -0.874839 -0.788284 -0.697661
v 0.000000 -0.788284 -1.118961
v 0.000000 -2.853435 -0.472523
v -0.000000 -2.665597 -0.724213
v 0.369433 -2.853435 -0.294613
v 0.566213 -2.665597 -0.451540
v 0.460676 -2.853435 0.105146
v 0.706056 -2.665597 0.161153
v 0.205020 -2.853435 0.425729
v 0.314224 -2.665597 0.652494
v -0.205020 -2.853435 0.425729
v -0.314224 -2.665597 0.652494
v -0.460676 -2.853435 0.105146
v -0.706056 -2.665597 0.161153
v -0.369433 -2.853435 -0.294613
v -0.566213 -2.665597 -0.451540
vn -0.0000 -0.0000 -1.0000
vn 0.7818 -0.0000 -0.6235
vn 0.9749 -0.0000 0.2225
vn 0.4339 -0.0000 0.9010
vn -0.4339 -0.0000 0.9010
vn -0.9749 -0.0000 0.2225
vn -0.0000 1.0000 -0.0037
vn -0.0037 1.0000 0.0008
vn 0.0016 1.0000 0.0034
vn -0.7818 -0.0000 -0.6235
vn -0.7798 -0.0722 -0.6219
vn -0.0000 -0.4980 -0.8672
vn -0.6780 -0.4980 -0.5407
vn -0.7805 0.0575 -0.6225
vn -0.0000 -0.0722 -0.9974
vn -0.9733 0.0575 0.2222
vn -0.9724 -0.0722 0.2219
vn -0.4332 0.0575 0.8995
vn -0.4327 -0.0722 0.8986
vn 0.4332 0.0575 0.8995
vn 0.4328 -0.0722 0.8986
vn 0.9724 -0.0722 0.2219
vn 0.7805 0.0575 -0.6225
vn 0.7798 -0.0722 -0.6219
vn -0.0000 0.0575 -0.9983
vn -0.0000 1.0000 -0.0058
vn 0.0029 1.0000 -0.0023
vn 0.0046 1.0000 -0.0036
vn 0.0037 1.0000 0.0008
vn 0.0057 1.0000 0.0013
vn 0.0025 1.0000 0.0053
vn -0.0016 1.0000 0.0034
vn -0.0025 1.0000 0.0053
vn -0.0057 1.0000 0.0013
vn -0.0029 1.0000 -0.0023
vn -0.0046 1.0000 -0.0036
vn -0.0000 -1.0000 -0.0058
vn -0.0046 -1.0000 -0.0036
vn -0.0057 -1.0000 0.0013
vn -0.0025 -1.0000 0.0053
vn 0.0025 -1.0000 0.0053
vn 0.0057 -1.0000 0.0013
vn 0.0046 -1.0000 -0.0036
vn 0.3057 -0.9204 -0.2438
vn 0.1697 -0.9204 0.3523
vn -0.3812 -0.9204 0.0870
vn 0.3763 -0.4980 0.7813
vn 0.8454 -0.4980 0.1930
vn -0.3763 -0.4980 0.7813
vn -0.8454 -0.4980 0.1930
vn 0.6780 -0.4980 -0.5407
vn -0.0000 -0.9204 -0.3911
vn 0.3813 -0.9204 0.0870
vn -0.1697 -0.9204 0.3523
vn -0.3057 -0.9204 -0.2438
vn 0.9733 0.0575 0.2222
vt 1.000000 0.994533
vt 0.857143 0.976266
vt 1.000000 0.976266
vt 0.857143 0.994533
vt 0.714286 0.976266
vt 0.714286 0.994533
vt 0.571429 0.976266
vt 0.571429 0.994533
vt 0.428571 0.976266
vt 0.428571 0.994533
vt 0.285714 0.976266
vt 0.250000 0.490000
vt 0.016017 0.196595
vt 0.354132 0.033767
vt 0.285714 0.994533
vt 0.142857 0.976266
vt 0.142857 0.994533
vt 0.000000 0.976266
vt 0.142857 0.735399
vt 0.000000 0.521411
vt 0.142857 0.521411
vt 0.142857 0.970799
vt 0.000000 0.735399
vt 0.285714 0.970799
vt 0.285714 0.735399
vt 0.428571 0.970799
vt 0.428571 0.735399
vt 0.571429 0.970799
vt 0.571429 0.735399
vt 0.714286 0.735400
vt 0.857143 0.970799
vt 0.857143 0.735399
vt 1.000000 0.970799
vt 1.000000 0.735399
vt 0.857143 1.000000
vt 0.714286 1.000000
vt 0.571429 1.000000
vt 0.428571 1.000000
vt 0.285714 1.000000
vt 0.142857 1.000000
vt 0.000000 1.000000
vt 0.000000 0.994533
vt 0.714286 0.970799
vt 0.879490 0.353265
vt 0.821862 0.100778
vt 0.588528 0.213145
vt 0.571429 0.521411
vt 0.714286 0.521411
vt 0.428571 0.521411
vt 0.285714 0.521411
vt 0.428571 0.521411
vt 0.714286 0.521411
vt 0.857143 0.521411
vt 0.937640 0.399638
vt 0.750000 0.415624
vt 0.750000 0.490000
vt 0.983983 0.196595
vt 0.854132 0.033767
vt 0.911472 0.213145
vt 0.645868 0.033767
vt 0.678138 0.100778
vt 0.562360 0.399638
vt 0.516017 0.196595
vt 0.620510 0.353265
vt 0.857143 0.521411
vt 1.000000 0.521411
vt 0.483983 0.196595
vt 0.437640 0.399638
vt 0.062360 0.399638
vt 0.145868 0.033767
vt 0.000000 0.970799
vt 1.000000 1.000000
s 1
usemtl Material.001
f 1/1/1 9/2/2 23/3/1
f 2/4/2 10/5/3 9/2/2
f 3/6/3 11/7/4 10/5/3
f 4/8/4 12/9/5 11/7/4
f 5/10/5 13/11/6 12/9/5
f 16/12/7 20/13/8 18/14/9
f 6/15/6 14/16/10 13/11/6
f 7/17/10 23/18/1 14/16/10
f 34/19/11 37/20/12 49/21/13
f 22/22/14 35/23/15 34/19/11
f 24/24/16 34/19/11 33/25/17
f 25/26/18 33/25/17 32/27/19
f 26/28/20 32/27/19 31/29/21
f 30/30/22 26/28/20 31/29/21
f 28/31/23 30/30/22 29/32/24
f 8/33/25 29/32/24 35/34/15
f 1/1/26 15/35/27 2/4/28
f 2/4/28 17/36/29 3/6/30
f 3/6/30 18/37/9 4/8/31
f 4/8/31 19/38/32 5/10/33
f 5/10/33 20/39/8 6/15/34
f 6/15/34 21/40/35 7/17/36
f 7/17/36 16/41/7 1/42/26
f 23/18/37 22/22/38 14/16/38
f 14/16/38 24/24/39 13/11/39
f 13/11/39 25/26/40 12/9/40
f 12/9/40 26/28/41 11/7/41
f 11/7/41 27/43/42 10/5/42
f 10/5/42 28/31/43 9/2/43
f 9/2/43 8/33/37 23/3/37
f 38/44/44 42/45/45 46/46/46
f 30/30/22 43/47/47 41/48/48
f 31/29/21 45/49/49 43/47/47
f 32/27/19 47/50/50 45/51/49
f 33/25/17 49/21/13 47/50/50
f 29/32/24 41/52/48 39/53/51
f 39/54/51 36/55/52 37/56/12
f 41/57/48 38/44/44 39/54/51
f 43/58/47 40/59/53 41/57/48
f 45/60/49 42/45/45 43/58/47
f 45/60/49 46/46/46 44/61/54
f 49/62/13 46/46/46 47/63/50
f 49/62/13 36/55/52 48/64/55
f 35/34/15 39/65/51 37/66/12
f 1/1/1 2/4/2 9/2/2
f 2/4/2 3/6/3 10/5/3
f 3/6/3 4/8/4 11/7/4
f 4/8/4 5/10/5 12/9/5
f 5/10/5 6/15/6 13/11/6
f 17/67/29 15/68/27 16/12/7
f 16/12/7 21/69/35 20/13/8
f 20/13/8 19/70/32 18/14/9
f 18/14/9 17/67/29 16/12/7
f 6/15/6 7/17/10 14/16/10
f 7/17/10 1/42/1 23/18/1
f 34/19/11 35/23/15 37/20/12
f 22/22/14 8/71/25 35/23/15
f 24/24/16 22/22/14 34/19/11
f 25/26/18 24/24/16 33/25/17
f 26/28/20 25/26/18 32/27/19
f 30/30/22 27/43/56 26/28/20
f 28/31/23 27/43/56 30/30/22
f 8/33/25 28/31/23 29/32/24
f 1/1/26 16/72/7 15/35/27
f 2/4/28 15/35/27 17/36/29
f 3/6/30 17/36/29 18/37/9
f 4/8/31 18/37/9 19/38/32
f 5/10/33 19/38/32 20/39/8
f 6/15/34 20/39/8 21/40/35
f 7/17/36 21/40/35 16/41/7
f 23/18/37 8/71/37 22/22/38
f 14/16/38 22/22/38 24/24/39
f 13/11/39 24/24/39 25/26/40
f 12/9/40 25/26/40 26/28/41
f 11/7/41 26/28/41 27/43/42
f 10/5/42 27/43/42 28/31/43
f 9/2/43 28/31/43 8/33/37
f 48/64/55 36/55/52 38/44/44
f 38/44/44 40/59/53 42/45/45
f 42/45/45 44/61/54 46/46/46
f 46/46/46 48/64/55 38/44/44
f 30/30/22 31/29/21 43/47/47
f 31/29/21 32/27/19 45/49/49
f 32/27/19 33/25/17 47/50/50
f 33/25/17 34/19/11 49/21/13
f 29/32/24 30/30/22 41/52/48
f 39/54/51 38/44/44 36/55/52
f 41/57/48 40/59/53 38/44/44
f 43/58/47 42/45/45 40/59/53
f 45/60/49 44/61/54 42/45/45
f 45/60/49 47/63/50 46/46/46
f 49/62/13 48/64/55 46/46/46
f 49/62/13 37/56/12 36/55/52
f 35/34/15 29/32/24 39/65/51
