# Blender 4.2.0
# www.blender.org
mtllib torpedo.mtl
o Cube.003
v 2.255833 -0.336325 0.077931
v 2.255833 -0.336325 0.123586
v 2.697462 -0.336325 0.077931
v 2.697462 -0.336325 0.123586
v 2.697462 -0.777954 0.088332
v 2.697462 -0.777954 0.113186
v 2.291224 -0.490787 0.089951
v 2.550387 -0.749949 0.093511
v 2.325946 -0.620368 0.091731
v 2.420805 -0.715228 0.093034
v 2.550387 -0.749949 0.108007
v 2.291224 -0.490787 0.111567
v 2.420805 -0.715228 0.108484
v 2.325946 -0.620368 0.109787
v 2.255833 -0.162869 -0.095525
v 2.255833 -0.117214 -0.095525
v 2.697462 -0.162869 -0.095525
v 2.697462 -0.117214 -0.095525
v 2.697462 -0.152468 -0.537153
v 2.697462 -0.127615 -0.537153
v 2.483311 -0.147411 -0.500318
v 2.483311 -0.132672 -0.500318
v 2.255833 -0.162869 0.297042
v 2.255833 -0.117214 0.297042
v 2.697462 -0.162869 0.297042
v 2.697462 -0.117214 0.297042
v 2.697462 -0.152468 0.738671
v 2.697462 -0.127615 0.738671
v 2.483311 -0.147411 0.701835
v 2.483311 -0.132672 0.701835
v 2.255833 0.056242 0.077931
v 2.255833 0.056242 0.123586
v 2.697462 0.056242 0.077931
v 2.697462 0.056242 0.123586
v 2.697462 0.497870 0.088332
v 2.697462 0.497870 0.113186
v 2.291224 0.210703 0.089951
v 2.550387 0.469865 0.093511
v 2.325946 0.340284 0.091731
v 2.420805 0.435144 0.093034
v 2.550387 0.469865 0.108007
v 2.291224 0.210703 0.111567
v 2.420805 0.435144 0.108484
v 2.325946 0.340284 0.109787
v -2.496736 -0.140042 -0.321195
v -2.496736 0.021478 -0.289067
v -2.496736 0.158407 -0.197574
v -2.496736 0.249900 -0.060644
v -2.496736 0.282028 0.100875
v -2.496736 0.249900 0.262394
v -2.496736 0.158407 0.399323
v -2.496736 0.021478 0.490816
v -2.496736 -0.140042 0.522945
v -2.496736 -0.301561 0.490816
v -2.496736 -0.438490 0.399323
v -2.496736 -0.529983 0.262394
v -2.496736 -0.562111 0.100875
v -2.496736 -0.529983 -0.060644
v -2.496736 -0.438490 -0.197574
v -2.496736 -0.301561 -0.289067
v -2.842023 -0.140042 -0.208174
v -2.719280 -0.140042 -0.264153
v -2.719280 -0.000351 -0.236367
v -2.842023 0.145483 -0.017393
v -2.842023 0.145483 0.219143
v -2.842023 -0.021774 0.386399
v -2.842023 -0.258310 0.386399
v -2.719280 -0.477284 0.240565
v -2.842023 -0.449091 0.100875
v -2.719280 -0.505070 0.100875
v -2.719280 -0.477284 -0.038815
v -2.719280 -0.279732 -0.236367
v 1.270863 0.021477 -0.289067
v 1.270863 0.158407 -0.197574
v 1.270863 0.249900 -0.060644
v 1.270863 0.282028 0.100875
v 1.270863 0.249900 0.262394
v 1.270863 0.158407 0.399323
v 1.270863 0.021477 0.490816
v 1.270863 -0.140042 0.522945
v 1.270863 -0.301561 0.490816
v 1.270863 -0.438490 0.399323
v 1.270863 -0.529983 0.262394
v 1.270863 -0.562112 0.100875
v 1.270863 -0.529983 -0.060644
v 1.270863 -0.438490 -0.197574
v 1.270863 -0.301561 -0.289067
v 1.270863 -0.140042 -0.321195
v 1.782235 -0.140042 -0.291351
v 2.486190 -0.140042 -0.205379
v 1.782235 0.010057 -0.261495
v 2.486190 -0.022844 -0.182067
v 2.777778 -0.012151 -0.027017
v 1.782235 0.137304 -0.176471
v 2.486190 0.076513 -0.115680
v 1.782235 0.222328 -0.049224
v 2.486190 0.142900 -0.016324
v 1.782235 0.252184 0.100875
v 2.486190 0.166212 0.100875
v 1.782235 0.222328 0.250973
v 2.486190 0.142900 0.218073
v 2.777778 -0.012151 0.228766
v 1.782235 0.137304 0.378220
v 2.486190 0.076512 0.317429
v 1.782235 0.010057 0.463244
v 2.486190 -0.022843 0.383817
v 1.782235 -0.140042 0.493101
v 2.486190 -0.140042 0.407129
v 1.782235 -0.290140 0.463244
v 2.486190 -0.257240 0.383817
v 2.777778 -0.267933 0.228766
v 1.782235 -0.417388 0.378221
v 2.486190 -0.356596 0.317429
v 1.782235 -0.502411 0.250973
v 2.486190 -0.422984 0.218073
v 1.782235 -0.532268 0.100875
v 2.486190 -0.446296 0.100875
v 1.782235 -0.502411 -0.049224
v 2.486190 -0.422984 -0.016324
v 2.777778 -0.267933 -0.027017
v 1.782235 -0.417388 -0.176471
v 2.486190 -0.356596 -0.115680
v 1.782235 -0.290140 -0.261495
v 2.486190 -0.257240 -0.182067
vn -0.0211 -0.0316 0.9993
vn -0.0337 -0.0528 0.9980
vn -0.0223 -0.0461 0.9987
vn 1.0000 -0.0000 -0.0000
vn -0.0000 1.0000 -0.0000
vn -0.7071 -0.7071 -0.0000
vn 0.7071 -0.7071 -0.0000
vn -0.3167 -0.0000 0.9485
vn -0.8718 -0.0000 0.4899
vn -0.0179 -0.0407 -0.9990
vn -0.0227 -0.0273 -0.9994
vn -0.0126 -0.0379 -0.9992
vn 0.9714 -0.2374 -0.0000
vn 0.9747 -0.2233 -0.0000
vn 0.0265 -0.9994 0.0242
vn 0.0010 -0.9993 0.0377
vn 0.0276 -0.9993 0.0235
vn -1.0000 -0.0000 -0.0000
vn -0.0000 -0.0000 -1.0000
vn 0.2201 -0.9755 -0.0000
vn 0.1871 -0.9823 -0.0000
vn 0.0265 0.9994 0.0242
vn 0.0010 0.9993 0.0377
vn -0.0000 0.9993 0.0382
vn 0.3167 -0.0000 0.9485
vn 0.1695 -0.0000 0.9855
vn -0.0265 0.9994 0.0242
vn -0.0010 0.9993 0.0377
vn -0.0276 0.9993 0.0235
vn 0.8718 -0.0000 0.4899
vn -0.1695 -0.0000 0.9855
vn -0.0265 -0.9994 0.0242
vn -0.0010 -0.9993 0.0377
vn -0.0000 -0.9993 0.0382
vn 0.0211 -0.0316 -0.9993
vn 0.0337 -0.0528 -0.9980
vn 0.0223 -0.0461 -0.9987
vn -0.2201 -0.9755 -0.0000
vn -0.1871 -0.9823 -0.0000
vn -0.9714 -0.2374 -0.0000
vn -0.9747 -0.2233 -0.0000
vn 0.0179 -0.0407 0.9990
vn 0.0227 -0.0273 0.9994
vn 0.0126 -0.0379 0.9992
vn 0.2774 0.9554 -0.1016
vn 0.1267 0.8936 0.4307
vn 0.1267 0.8936 -0.4307
vn 0.1701 -0.8540 -0.4917
vn 0.1802 -0.7961 0.5778
vn 0.3105 -0.9001 0.3057
vn -0.0300 0.2817 0.9590
vn -0.0740 0.1946 0.9781
vn -0.0922 0.2915 0.9521
vn -0.0000 0.3011 0.9536
vn -0.0234 0.1950 0.9805
vn -0.0000 0.6793 0.7339
vn -0.0297 0.6627 0.7483
vn -0.0293 0.9119 0.4094
vn 0.7025 0.7117 -0.0000
vn -0.0291 0.9996 -0.0000
vn -0.0293 0.9119 -0.4094
vn -0.0000 0.6793 -0.7339
vn -0.0297 0.6627 -0.7483
vn -0.0000 0.3011 -0.9536
vn -0.0300 0.2817 -0.9590
vn -0.0000 0.1951 -0.9808
vn -0.0234 0.1950 -0.9805
vn 0.0183 -0.3162 -0.9485
vn -0.0234 -0.1950 -0.9805
vn -0.0300 -0.2817 -0.9590
vn 0.1721 -0.6589 -0.7322
vn -0.0297 -0.6627 -0.7483
vn -0.0293 -0.9119 -0.4094
vn 0.7025 -0.7117 -0.0000
vn -0.0291 -0.9996 -0.0000
vn -0.0293 -0.9119 0.4094
vn -0.0000 -0.6793 0.7339
vn -0.0297 -0.6627 0.7483
vn -0.0000 -0.3011 0.9536
vn -0.0300 -0.2817 0.9590
vn -0.0000 -0.1951 0.9808
vn -0.0234 -0.1950 0.9805
vn 0.3616 -0.6648 -0.6537
vn -0.4884 -0.1409 0.8612
vn -0.5661 0.0010 0.8244
vn -0.9224 0.0043 0.3863
vn 0.2026 -0.0000 0.9793
vn 0.2519 -0.0336 0.9672
vn 0.2519 0.0336 0.9672
vn 0.3796 0.3857 0.8409
vn 0.5048 0.7487 0.4297
vn 0.4283 0.8840 -0.1874
vn 0.5316 -0.0000 -0.8470
vn 0.4685 -0.0000 -0.8834
vn 0.5357 -0.0000 -0.8444
vn 0.5660 0.7887 -0.2400
vn 0.3538 0.6085 -0.7103
vn 0.3995 -0.4548 0.7959
vn 0.3080 -0.6727 0.6727
vn -0.5661 -0.0010 -0.8244
vn -0.5186 -0.0000 -0.8550
vn -0.0914 -0.6637 0.7424
vn -0.0902 -0.9088 0.4075
vn -0.0898 -0.9960 -0.0000
vn -0.0902 -0.9088 -0.4075
vn -0.0914 -0.6637 -0.7424
vn -0.0922 -0.2915 -0.9521
vn -0.0740 -0.1946 -0.9781
vn -0.0740 0.1946 -0.9781
vn -0.0922 0.2915 -0.9521
vn -0.0914 0.6637 -0.7424
vn -0.0902 0.9088 -0.4075
vn -0.0898 0.9960 -0.0000
vn -0.0902 0.9088 0.4075
vn -0.0914 0.6637 0.7424
vn -0.0922 -0.2915 0.9521
vn -0.1189 -0.1937 0.9738
vn -0.0740 -0.1946 0.9781
vn -0.1212 -0.3950 0.9106
vn -0.1463 -0.7432 0.6529
vn -0.1511 0.7645 0.6267
vn -0.4427 0.8625 -0.2453
vn -0.2975 0.9224 -0.2464
vn -0.2975 -0.9224 0.2464
vn -0.7248 -0.6459 -0.2396
vn -0.7445 -0.6677 -0.0000
vn -0.1511 -0.7645 -0.6267
vn -0.1212 -0.3950 -0.9106
vn -0.4427 -0.8625 0.2453
vn -0.1189 -0.1937 -0.9738
vn -0.1189 0.1937 -0.9738
vn -0.1212 0.3950 -0.9106
vn -0.1463 0.7432 -0.6529
vn -0.4884 0.1409 -0.8612
vn -0.9224 -0.0043 -0.3863
vn -0.7248 0.6460 0.2396
vn -0.7445 0.6677 -0.0000
vn -0.1212 0.3950 0.9106
vn -0.1189 0.1937 0.9738
vn -0.0084 -0.0347 0.9994
vn -0.0397 -0.0235 0.9989
vn -0.0000 -0.0137 0.9999
vn -0.8323 -0.2300 0.5043
vn -0.0165 -0.0526 -0.9985
vn -0.8323 -0.2300 -0.5043
vn -0.0000 -0.0137 -0.9999
vn -0.0397 -0.0235 -0.9989
vn 0.9659 -0.2588 -0.0000
vn 0.2588 -0.9659 -0.0000
vn 0.0276 0.9993 0.0235
vn -0.0276 -0.9993 0.0235
vn 0.0084 -0.0347 -0.9994
vn 0.0397 -0.0235 -0.9989
vn 0.8324 -0.2300 -0.5043
vn -0.2588 -0.9659 -0.0000
vn -0.9659 -0.2588 -0.0000
vn 0.0165 -0.0526 0.9985
vn 0.8323 -0.2300 0.5043
vn 0.0397 -0.0235 0.9989
vn 0.3071 -0.9281 -0.2108
vn -0.0000 0.1951 0.9808
vn -0.0000 -0.1951 -0.9808
vn -0.5186 -0.0000 0.8550
vn -0.3886 0.5119 0.7661
vn 0.2438 0.1892 0.9512
vn 0.2438 -0.1892 0.9512
vn 0.6399 0.4343 0.6340
vn 0.4083 0.1781 0.8953
vn 0.2438 0.5388 0.8064
vn 0.3290 0.6439 0.6908
vn 0.3242 0.5825 -0.7454
vn 0.3057 0.5290 -0.7917
vn 0.4083 -0.1781 0.8953
vn 0.6967 -0.5942 0.4019
vn -0.2909 0.9567 -0.0000
vn -0.2909 -0.9567 -0.0000
vn -0.3886 -0.5119 -0.7661
vt 0.728292 0.500000
vt 0.855345 0.573354
vt 0.875000 0.750000
vt 0.625000 0.500000
vt 0.375000 0.750000
vt 0.375000 0.500000
vt 0.625000 0.750000
vt 0.375000 1.000000
vt 0.366775 0.323354
vt 0.625000 0.176646
vt 0.633225 0.323354
vt 0.375000 0.176646
vt 0.372908 0.358737
vt 0.625000 0.000000
vt 0.627092 0.358737
vt 0.144655 0.573354
vt 0.271708 0.500000
vt 0.375000 0.103292
vt 0.625000 0.103292
vt 0.766263 0.504999
vt 0.375000 0.396708
vt 0.625000 0.396708
vt 0.233737 0.504999
vt 0.125000 0.750000
vt 0.375000 0.000000
vt 0.250000 1.000000
vt 0.187500 0.943105
vt 0.312500 0.943105
vt 0.687500 0.943105
vt 0.812500 0.943105
vt 0.450503 0.333051
vt 0.062500 0.631307
vt 0.000000 0.586748
vt 0.062500 0.586748
vt 0.062500 0.943105
vt 0.000000 0.631307
vt 0.125000 0.943105
vt 0.125000 0.631307
vt 0.187500 0.631307
vt 0.250000 0.943105
vt 0.250000 0.631307
vt 0.312500 0.631307
vt 0.375000 0.943105
vt 0.375000 0.631307
vt 0.437500 0.943105
vt 0.437500 0.631307
vt 0.500000 0.943105
vt 0.500000 0.631307
vt 0.562500 0.943105
vt 0.562500 0.631307
vt 0.625000 0.943105
vt 0.625000 0.631307
vt 0.687500 0.631307
vt 0.750000 0.943105
vt 0.750000 0.631307
vt 0.812500 0.631307
vt 0.875000 0.943105
vt 0.875000 0.631307
vt 0.937500 0.943105
vt 0.937500 0.631307
vt 1.000000 0.943105
vt 1.000000 0.631307
vt 0.333051 0.049497
vt 0.916458 0.421876
vt 0.658137 0.341863
vt 0.661987 0.472493
vt 1.000000 1.000000
vt 0.062500 1.000000
vt 0.028269 0.341844
vt 0.032977 0.250000
vt 0.250000 0.467023
vt 0.166949 0.049497
vt 0.450503 0.166949
vt 0.312500 1.000000
vt 0.010000 0.250000
vt 0.341844 0.471731
vt 0.841863 0.158137
vt 0.658137 0.158137
vt 0.875000 0.586748
vt 0.812500 0.586748
vt 0.750000 0.586748
vt 0.687500 0.586748
vt 0.750000 0.586748
vt 0.625000 0.586748
vt 0.687500 0.586748
vt 0.562500 0.586748
vt 0.625000 0.586748
vt 0.500000 0.586748
vt 0.500000 0.586748
vt 0.437500 0.586748
vt 0.437500 0.586748
vt 0.375000 0.586748
vt 0.375000 0.586748
vt 0.312500 0.586748
vt 0.250000 0.586748
vt 0.187500 0.586748
vt 0.250000 0.586748
vt 0.125000 0.586748
vt 0.187500 0.586748
vt 0.125000 0.586748
vt 0.937500 0.586748
vt 0.875000 0.586748
vt 0.937500 0.586748
vt 0.997393 0.500000
vt 1.000000 0.586748
vt 0.934893 0.500000
vt 0.872393 0.500000
vt 0.578124 0.416458
vt 0.527507 0.161987
vt 0.809893 0.500000
vt 0.690107 0.500000
vt 0.747393 0.500000
vt 0.627607 0.500000
vt 0.684893 0.500000
vt 0.565107 0.500000
vt 0.622393 0.500000
vt 0.921876 0.083542
vt 0.841863 0.341863
vt 0.972493 0.338013
vt 0.502607 0.500000
vt 0.559893 0.500000
vt 0.497393 0.500000
vt 0.434893 0.500000
vt 0.372393 0.500000
vt 0.583542 0.078124
vt 0.838013 0.027507
vt 0.309893 0.500000
vt 0.190107 0.500000
vt 0.247393 0.500000
vt 0.127607 0.500000
vt 0.184893 0.500000
vt 0.065107 0.500000
vt 0.122393 0.500000
vt 0.002607 0.500000
vt 0.059893 0.500000
vt 0.801646 0.519655
vt 0.875000 0.646708
vt 0.625000 1.000000
vt 0.125000 0.646708
vt 0.198354 0.519655
vt 0.187500 1.000000
vt 0.000000 0.943105
vt 0.753831 0.489238
vt 0.845092 0.469561
vt 0.583542 0.421876
vt 0.937500 1.000000
vt 0.250000 0.490000
vt 0.940107 0.500000
vt 0.877607 0.500000
vt 0.815107 0.500000
vt 0.510762 0.253831
vt 0.530439 0.345092
vt 0.578124 0.083542
vt 0.752607 0.500000
vt 0.989238 0.246169
vt 0.969561 0.154908
vt 0.921875 0.416458
vt 0.440107 0.500000
vt 0.377607 0.500000
vt 0.315107 0.500000
vt 0.746169 0.010762
vt 0.654909 0.030439
vt 0.916458 0.078124
vt 0.252607 0.500000
s 1
usemtl Material
f 11/1/1 2/3/3 14/2/2
f 6/4/4 5/6/4 3/5/4
f 4/7/5 3/5/5 1/8/5
f 10/9/6 13/11/6 14/10/6
f 39/12/7 40/9/7 43/11/7
f 29/13/8 30/15/8 24/14/9
f 9/16/10 3/5/12 8/17/11
f 37/18/13 42/19/13 32/14/14
f 22/20/15 20/4/17 18/7/16
f 20/4/18 19/6/18 17/5/18
f 18/7/19 17/5/19 15/8/19
f 38/21/20 35/6/21 41/22/20
f 21/23/22 15/24/24 17/5/23
f 22/15/25 21/13/25 19/6/26
f 30/20/27 28/4/29 26/7/28
f 28/4/4 27/6/4 25/5/4
f 26/7/19 25/5/19 23/8/19
f 15/25/30 21/13/25 22/15/25
f 30/15/8 29/13/8 27/6/31
f 29/23/32 23/24/34 25/5/33
f 41/1/35 32/3/37 44/2/36
f 35/6/18 33/5/18 34/7/18
f 34/7/5 33/5/5 31/8/5
f 8/21/38 5/6/39 11/22/38
f 7/18/40 12/19/40 2/14/41
f 39/16/42 33/5/44 38/17/43
f 70/26/45 56/28/47 58/27/46
f 50/29/48 64/31/50 48/30/49
f 87/32/51 123/34/53 89/33/52
f 60/35/54 87/32/51 88/36/55
f 59/37/56 86/38/57 87/32/51
f 58/27/46 85/39/58 86/38/57
f 57/40/59 84/41/60 85/39/58
f 56/28/47 83/42/61 84/41/60
f 55/43/62 82/44/63 83/42/61
f 54/45/64 81/46/65 82/44/63
f 53/47/66 80/48/67 81/46/65
f 52/49/68 79/50/70 80/48/69
f 51/51/71 78/52/72 79/50/70
f 50/29/48 77/53/73 78/52/72
f 49/54/74 76/55/75 77/53/73
f 48/30/49 75/56/76 76/55/75
f 47/57/77 74/58/78 75/56/76
f 46/59/79 73/60/80 74/58/78
f 45/61/81 88/62/82 73/60/80
f 66/63/83 50/29/48 51/51/71
f 95/64/84 124/66/86 120/65/85
f 62/67/87 60/35/89 46/59/88
f 72/68/90 69/70/92 71/69/91
f 61/71/4 65/73/4 67/72/93
f 54/45/94 66/63/95 52/49/94
f 68/74/96 70/75/45 67/72/97
f 63/76/98 46/59/99 48/30/49
f 120/65/85 111/78/101 102/77/100
f 94/79/102 96/80/103 75/56/76
f 96/80/103 98/81/104 76/55/75
f 76/55/75 98/83/104 100/82/105
f 77/53/73 100/85/105 103/84/106
f 78/52/72 103/87/106 105/86/107
f 79/50/70 105/86/107 107/88/108
f 107/89/109 109/90/110 81/46/65
f 109/91/110 112/92/111 82/44/63
f 112/93/111 114/94/112 83/42/61
f 114/94/112 116/95/113 84/41/60
f 84/41/60 116/97/113 118/96/114
f 85/39/58 118/99/114 121/98/115
f 86/38/57 121/100/115 123/34/53
f 91/101/116 94/102/102 74/58/78
f 91/103/116 89/105/118 90/104/117
f 94/102/102 91/101/116 92/106/119
f 96/80/103 94/79/102 95/107/120
f 122/108/121 115/109/123 111/78/122
f 98/81/104 96/80/103 97/110/124
f 98/83/104 99/112/126 101/111/125
f 100/85/105 101/114/125 104/113/127
f 103/87/106 104/116/127 106/115/128
f 104/117/127 97/119/124 93/118/129
f 105/86/107 106/121/128 108/120/130
f 109/90/110 107/89/109 108/122/131
f 112/92/111 109/91/110 110/123/132
f 114/94/112 112/93/111 113/124/133
f 113/125/134 106/126/135 102/77/100
f 116/95/113 114/94/112 115/127/123
f 116/97/113 117/129/137 119/128/136
f 118/99/114 119/131/136 122/130/121
f 121/100/115 122/133/121 124/132/138
f 123/34/53 124/135/138 90/134/139
f 89/105/118 91/103/116 73/60/80
f 4/7/140 11/1/1 6/4/141
f 11/1/1 14/2/2 13/136/142
f 14/2/2 2/3/3 12/137/143
f 2/3/3 11/1/1 4/7/140
f 6/4/4 3/5/4 4/7/4
f 4/7/5 1/8/5 2/138/5
f 10/9/6 14/10/6 9/12/6
f 39/12/7 43/11/7 44/10/7
f 29/13/8 24/14/9 23/25/9
f 1/24/144 9/16/10 7/139/145
f 9/16/10 8/17/11 10/140/146
f 8/17/11 3/5/12 5/6/147
f 3/5/12 9/16/10 1/24/144
f 44/10/148 37/18/13 39/12/148
f 37/18/13 32/14/14 31/25/14
f 42/19/13 37/18/13 44/10/148
f 22/20/15 18/7/16 16/3/34
f 20/4/18 17/5/18 18/7/18
f 18/7/19 15/8/19 16/138/19
f 38/21/20 43/11/149 40/9/149
f 41/22/20 35/6/21 36/4/21
f 38/21/20 41/22/20 43/11/149
f 21/23/22 17/5/23 19/6/150
f 22/15/25 19/6/26 20/4/26
f 30/20/27 26/7/28 24/3/24
f 28/4/4 25/5/4 26/7/4
f 26/7/19 23/8/19 24/138/19
f 15/25/30 22/15/25 16/14/30
f 30/15/8 27/6/31 28/4/31
f 29/23/32 25/5/33 27/6/151
f 34/7/152 41/1/35 36/4/153
f 41/1/35 44/2/36 43/136/146
f 44/2/36 32/3/37 42/137/154
f 32/3/37 41/1/35 34/7/152
f 35/6/18 34/7/18 36/4/18
f 34/7/5 31/8/5 32/138/5
f 8/21/38 13/11/155 10/9/155
f 11/22/38 5/6/39 6/4/39
f 8/21/38 11/22/38 13/11/155
f 14/10/156 7/18/40 9/12/156
f 7/18/40 2/14/41 1/25/41
f 12/19/40 7/18/40 14/10/156
f 31/24/157 39/16/42 37/139/158
f 39/16/42 38/17/43 40/140/142
f 38/17/43 33/5/44 35/6/159
f 33/5/44 39/16/42 31/24/157
f 70/26/45 58/27/46 71/141/91
f 58/27/46 56/28/47 57/40/59
f 56/28/47 70/26/45 68/74/96
f 64/31/50 50/29/48 65/73/160
f 50/29/48 48/30/49 49/54/74
f 87/32/51 89/33/52 88/36/55
f 60/35/54 88/36/55 45/142/161
f 59/37/56 87/32/51 60/35/54
f 58/27/46 86/38/57 59/37/56
f 57/40/59 85/39/58 58/27/46
f 56/28/47 84/41/60 57/40/59
f 55/43/62 83/42/61 56/28/47
f 54/45/64 82/44/63 55/43/62
f 53/47/66 81/46/65 54/45/64
f 52/49/68 80/48/69 53/47/162
f 51/51/71 79/50/70 52/49/68
f 50/29/48 78/52/72 51/51/71
f 49/54/74 77/53/73 50/29/48
f 48/30/49 76/55/75 49/54/74
f 47/57/77 75/56/76 48/30/49
f 46/59/79 74/58/78 47/57/77
f 45/61/81 73/60/80 46/59/79
f 50/29/48 66/63/83 65/73/160
f 66/63/83 51/51/71 52/49/68
f 90/143/18 95/64/84 92/144/18
f 95/64/84 120/65/85 93/118/163
f 120/65/85 124/66/86 122/145/164
f 124/66/86 95/64/84 90/143/18
f 60/35/89 62/67/87 72/68/165
f 62/67/87 46/59/88 63/146/166
f 46/59/88 60/35/89 45/142/4
f 61/71/167 72/68/90 62/147/168
f 72/68/90 59/37/170 60/35/169
f 59/37/170 71/69/91 58/27/46
f 71/69/91 69/70/92 70/75/45
f 69/70/92 72/68/90 61/71/167
f 72/68/90 71/69/91 59/37/170
f 65/73/4 61/71/4 64/31/4
f 61/71/4 67/72/93 69/70/4
f 67/72/93 65/73/4 66/63/95
f 66/63/95 54/45/94 67/72/93
f 54/45/94 52/49/94 53/47/4
f 68/74/96 55/43/171 56/28/47
f 55/43/171 67/72/97 54/45/172
f 67/72/97 70/75/45 69/70/92
f 68/74/96 67/72/97 55/43/171
f 63/76/98 61/71/174 62/147/173
f 61/71/174 48/30/49 64/31/50
f 48/30/49 46/59/99 47/57/4
f 63/76/98 48/30/49 61/71/174
f 120/65/85 102/77/100 93/118/163
f 94/79/102 75/56/76 74/58/78
f 96/80/103 76/55/75 75/56/76
f 76/55/75 100/82/105 77/53/73
f 77/53/73 103/84/106 78/52/72
f 78/52/72 105/86/107 79/50/70
f 79/50/70 107/88/108 80/48/69
f 107/89/109 81/46/65 80/48/67
f 109/91/110 82/44/63 81/46/65
f 112/93/111 83/42/61 82/44/63
f 114/94/112 84/41/60 83/42/61
f 84/41/60 118/96/114 85/39/58
f 85/39/58 121/98/115 86/38/57
f 86/38/57 123/34/53 87/32/51
f 91/101/116 74/58/78 73/60/80
f 91/103/116 90/104/117 92/148/119
f 94/102/102 92/106/119 95/149/120
f 96/80/103 95/107/120 97/150/124
f 117/151/137 122/108/121 119/152/136
f 122/108/121 111/78/122 120/65/175
f 111/78/122 115/109/123 113/153/133
f 115/109/123 122/108/121 117/151/137
f 98/81/104 97/110/124 99/154/126
f 98/83/104 101/111/125 100/82/105
f 100/85/105 104/113/127 103/84/106
f 103/87/106 106/115/128 105/86/107
f 99/155/126 104/117/127 101/156/125
f 104/117/127 93/118/129 102/77/176
f 93/118/129 97/119/124 95/157/120
f 97/119/124 104/117/127 99/155/126
f 105/86/107 108/120/130 107/88/108
f 109/90/110 108/122/131 110/158/132
f 112/92/111 110/123/132 113/159/133
f 114/94/112 113/124/133 115/160/123
f 108/161/18 113/125/134 110/162/18
f 113/125/134 102/77/100 111/78/101
f 102/77/100 106/126/135 104/163/177
f 106/126/135 113/125/134 108/161/18
f 116/95/113 115/127/123 117/164/137
f 116/97/113 119/128/136 118/96/114
f 118/99/114 122/130/121 121/98/115
f 121/100/115 124/132/138 123/34/53
f 123/34/53 90/134/139 89/33/52
f 89/105/118 73/60/80 88/62/82
